<?xml version="1.0" encoding="UTF-8" standalone="no"?>
<svg
   xmlns:dc="http://purl.org/dc/elements/1.1/"
   xmlns:cc="http://creativecommons.org/ns#"
   xmlns:rdf="http://www.w3.org/1999/02/22-rdf-syntax-ns#"
   xmlns:svg="http://www.w3.org/2000/svg"
   xmlns="http://www.w3.org/2000/svg"
   xmlns:sodipodi="http://sodipodi.sourceforge.net/DTD/sodipodi-0.dtd"
   xmlns:inkscape="http://www.inkscape.org/namespaces/inkscape"
   height="512pt"
   viewBox="-112 0 512 512.001"
   width="512pt"
   version="1.1"
   id="svg18"
   sodipodi:docname="smartphone.svg"
   inkscape:version="0.92.4 (5da689c313, 2019-01-14)">
  <metadata
     id="metadata24">
    <rdf:RDF>
      <cc:Work
         rdf:about="">
        <dc:format>image/svg+xml</dc:format>
        <dc:type
           rdf:resource="http://purl.org/dc/dcmitype/StillImage" />
      </cc:Work>
    </rdf:RDF>
  </metadata>
  <defs
     id="defs22" />
  <sodipodi:namedview
     pagecolor="#ffffff"
     bordercolor="#666666"
     borderopacity="1"
     objecttolerance="10"
     gridtolerance="10"
     guidetolerance="10"
     inkscape:pageopacity="0"
     inkscape:pageshadow="2"
     inkscape:window-width="1920"
     inkscape:window-height="1001"
     id="namedview20"
     showgrid="false"
     inkscape:zoom="0.48889805"
     inkscape:cx="8.9396706"
     inkscape:cy="541.16434"
     inkscape:window-x="-9"
     inkscape:window-y="-9"
     inkscape:window-maximized="1"
     inkscape:current-layer="svg18" />
  <g
     id="g854"
     transform="translate(0.31053737,4.9237059e-4)">
    <path
       sodipodi:nodetypes="sssssssssssscsssccccssscssssssccs"
       inkscape:connector-curvature="0"
       style="fill:#ffffff;fill-opacity:1"
       id="path4"
       d="M 242.03516,0 H 45.34375 C 20.34375,0 0,20.339844 0,45.34375 v 421.3125 C 0,491.66016 20.34375,512 45.34375,512 h 196.69141 c 25,0 45.34375,-20.33984 45.34375,-45.34375 V 45.34375 C 287.37891,20.339844 267.03516,0 242.03516,0 Z M 45.34375,20 h 196.69141 c 13.97265,0 25.34375,11.371094 25.34375,25.34375 v 6.632812 H 136.35938 c -5.52344,0 -10,4.476563 -10,10 0,5.519532 4.47656,10 10,10 H 267.37891 V 430.01172 H 20 V 71.976562 h 125.11482 c 5.52343,0 10,-4.480468 10,-10 0,-5.523437 -4.47657,-10 -10,-10 H 20 V 45.34375 C 20,31.371094 31.371094,20 45.34375,20 Z M 267.37891,466.65625 C 267.37891,480.62891 256.00781,492 242.03516,492 H 45.34375 C 31.371094,492 20,480.62891 20,466.65625 v -16.64453 h 247.37891 z" />
    <path
       style="fill:#ffffff;fill-opacity:1"
       id="path6"
       d="M 122.82031,225.61719 H 52.25 c -5.523438,0 -10,-4.47657 -10,-10 v -70.56641 c 0,-5.52344 4.476562,-10 10,-10 h 70.57031 c 5.52344,0 10,4.47656 10,10 v 70.56641 c 0,5.52343 -4.47656,10 -10,10 z m -60.57031,-20 h 50.57031 V 155.05078 H 62.25 Z m 0,0"
       inkscape:connector-curvature="0" />
    <path
       style="fill:#ffffff;fill-opacity:1"
       id="path8"
       d="m 235.12891,225.61719 h -70.57032 c -5.52343,0 -10,-4.47657 -10,-10 v -70.56641 c 0,-5.52344 4.47657,-10 10,-10 h 70.57032 c 5.52343,0 10,4.47656 10,10 v 70.56641 c 0,5.52343 -4.47657,10 -10,10 z m -60.57032,-20 h 50.57032 v -50.56641 h -50.57032 z m 0,0"
       inkscape:connector-curvature="0" />
    <path
       style="fill:#ffffff;fill-opacity:1"
       id="path10"
       d="M 122.82031,336.92578 H 52.25 c -5.523438,0 -10,-4.47656 -10,-10 v -70.57031 c 0,-5.51953 4.476562,-10 10,-10 h 70.57031 c 5.52344,0 10,4.48047 10,10 v 70.57031 c 0,5.52344 -4.47656,10 -10,10 z m -60.57031,-20 h 50.57031 V 266.35547 H 62.25 Z m 0,0"
       inkscape:connector-curvature="0" />
    <path
       style="fill:#ffffff;fill-opacity:1"
       id="path12"
       d="m 235.12891,336.92578 h -70.57032 c -5.52343,0 -10,-4.47656 -10,-10 v -70.57031 c 0,-5.51953 4.47657,-10 10,-10 h 70.57032 c 5.52343,0 10,4.48047 10,10 v 70.57031 c 0,5.52344 -4.47657,10 -10,10 z m -60.57032,-20 h 50.57032 v -50.57031 h -50.57032 z m 0,0"
       inkscape:connector-curvature="0" />
    <path
       style="fill:#ffffff;fill-opacity:1"
       id="path14"
       d="m 156.02344,481.00391 h -24.66797 c -5.52344,0 -10,-4.47657 -10,-10 0,-5.52344 4.47656,-10 10,-10 h 24.66797 c 5.52343,0 10,4.47656 10,10 0,5.52343 -4.47657,10 -10,10 z m 0,0"
       inkscape:connector-curvature="0" />
    <path
       style="fill:#ffffff;fill-opacity:1"
       id="path16"
       d="m 176.69141,381 h -66 c -5.52344,0 -10,-4.47656 -10,-10 0,-5.52344 4.47656,-10 10,-10 h 66 c 5.51953,0 10,4.47656 10,10 0,5.52344 -4.48047,10 -10,10 z m 0,0"
       inkscape:connector-curvature="0" />
    <path
       sodipodi:nodetypes="sssssss"
       inkscape:connector-curvature="0"
       d="m 143.75092,45.52117 h -1.27348 c -5.52344,0 -10,-4.476562 -10,-10 0,-5.523437 4.47656,-10 10,-10 h 1.27348 c 5.52343,0 10,4.476563 10,10 0,5.523438 -4.47657,10 -10,10 z"
       id="path844"
       style="fill:#ffffff;fill-opacity:1" />
  </g>
</svg>
