<?xml version="1.0" encoding="UTF-8" standalone="no"?>
<!-- Generator: Adobe Illustrator 19.0.0, SVG Export Plug-In . SVG Version: 6.00 Build 0)  -->

<svg
   xmlns:dc="http://purl.org/dc/elements/1.1/"
   xmlns:cc="http://creativecommons.org/ns#"
   xmlns:rdf="http://www.w3.org/1999/02/22-rdf-syntax-ns#"
   xmlns:svg="http://www.w3.org/2000/svg"
   xmlns="http://www.w3.org/2000/svg"
   xmlns:sodipodi="http://sodipodi.sourceforge.net/DTD/sodipodi-0.dtd"
   xmlns:inkscape="http://www.inkscape.org/namespaces/inkscape"
   version="1.1"
   id="Capa_1"
   x="0px"
   y="0px"
   viewBox="0 0 388.309 388.309"
   style="enable-background:new 0 0 388.309 388.309;"
   xml:space="preserve"
   sodipodi:docname="gallery.svg"
   inkscape:version="0.92.4 (5da689c313, 2019-01-14)"><metadata
   id="metadata51"><rdf:RDF><cc:Work
       rdf:about=""><dc:format>image/svg+xml</dc:format><dc:type
         rdf:resource="http://purl.org/dc/dcmitype/StillImage" /></cc:Work></rdf:RDF></metadata><defs
   id="defs49">
	

		
	
			
			
			
			
		</defs><sodipodi:namedview
   pagecolor="#ffffff"
   bordercolor="#666666"
   borderopacity="1"
   objecttolerance="10"
   gridtolerance="10"
   guidetolerance="10"
   inkscape:pageopacity="0"
   inkscape:pageshadow="2"
   inkscape:window-width="1920"
   inkscape:window-height="1001"
   id="namedview47"
   showgrid="false"
   inkscape:zoom="0.60776342"
   inkscape:cx="-96.152319"
   inkscape:cy="389.30183"
   inkscape:window-x="-9"
   inkscape:window-y="-9"
   inkscape:window-maximized="1"
   inkscape:current-layer="Capa_1" />

<g
   id="g16">
</g>
<g
   id="g18">
</g>
<g
   id="g20">
</g>
<g
   id="g22">
</g>
<g
   id="g24">
</g>
<g
   id="g26">
</g>
<g
   id="g28">
</g>
<g
   id="g30">
</g>
<g
   id="g32">
</g>
<g
   id="g34">
</g>
<g
   id="g36">
</g>
<g
   id="g38">
</g>
<g
   id="g40">
</g>
<g
   id="g42">
</g>
<g
   id="g44">
</g>
<g
   id="g891"
   transform="translate(3.5607409,-6.9844848)"><path
     d="m 201.173,307.042 c -11.291,-0.174 -22.177,-4.233 -30.825,-11.494 L 113.401,245.393 C 104.44,237.02 90.737,236.357 81.009,243.826 L 0.03,303.384 v 38.661 c -0.582,10.371 7.355,19.25 17.726,19.832 0.534,0.03 1.07,0.037 1.605,0.021 h 286.824 c 11.494,0 22.988,-8.359 22.988,-19.853 V 240.691 L 226.25,300.25 c -7.566,4.548 -16.249,6.9 -25.077,6.792 z"
     id="path2"
     style="fill:#ffffff;fill-opacity:1"
     inkscape:connector-curvature="0" /><path
     d="m 377.23123,74.019051 c -2.74799,-3.744195 -6.99317,-6.102444 -11.62315,-6.457582 L 130.9903,40.440779 c -4.57395,-0.383153 -9.13883,0.833875 -12.91434,3.444264 -3.34374,2.903728 -5.61711,6.844855 -6.45757,11.193032 L 107.744,88.656348 h 205.77495 c 19.61829,0.44495 35.48168,16.118822 36.16147,35.730532 v 151.96287 c 0,-0.86107 3.87439,-1.72213 5.59652,-3.44426 3.56456,-2.79908 5.63112,-7.09123 5.59651,-11.62316 L 381.10562,86.503268 c 0.44742,-4.514621 -0.95006,-9.017706 -3.87439,-12.484217 z"
     id="path6"
     style="fill:#ffffff;fill-opacity:1;stroke-width:0.82398647"
     inkscape:connector-curvature="0" /><path
     id="path8"
     d="m 19.361328,105.89844 c -11.4939998,0 -19.33203112,10.97084 -19.33203112,22.46484 V 277.26172 L 68.992188,227.10742 c 17.506,-12.986 41.724172,-11.89567 57.992192,2.61133 l 57.46874,50.1543 c 8.666,7.357 21.04422,8.40728 30.82422,2.61328 l 113.89454,-66.35156 v -87.77149 c -0.79001,-12.265 -10.70633,-21.95584 -22.98633,-22.46484 z m 199.884762,21.21875 c 33.94232,0 61.69141,27.74713 61.69141,61.68945 0,33.94232 -27.74909,61.69141 -61.69141,61.69141 -33.94231,0 -61.68945,-27.74909 -61.68945,-61.69141 0,-33.94232 27.74714,-61.68945 61.68945,-61.68945 z m 0,21.68554 c -22.2221,0 -40.0039,17.78181 -40.0039,40.00391 0,22.2221 17.7818,40.00391 40.0039,40.00391 22.22211,0 40.00391,-17.78181 40.00391,-40.00391 0,-22.2221 -17.7818,-40.00391 -40.00391,-40.00391 z"
     style="fill:#ffffff;fill-opacity:1"
     inkscape:connector-curvature="0" /><path
     inkscape:connector-curvature="0"
     id="path881"
     d="m 213.91933,229.22701 c -8.06398,-1.45377 -15.41494,-5.34396 -21.42469,-11.33812 -4.79116,-4.77874 -7.88538,-9.80726 -10.01733,-16.27948 -1.31194,-3.98283 -1.53316,-5.66034 -1.53428,-11.63458 -0.001,-8.01574 1.26367,-12.89826 5.13691,-19.82425 2.74016,-4.89988 9.26513,-11.48083 14.24851,-14.37076 6.33775,-3.67536 12.03976,-5.22497 19.48791,-5.29614 7.74564,-0.074 11.08244,0.679 18.28519,4.12642 4.57262,2.18858 6.27175,3.41543 10.19458,7.36095 5.20676,5.23687 8.03647,9.97975 10.28686,17.2418 1.95388,6.30522 1.86483,15.9051 -0.20597,22.20264 -4.33885,13.195 -13.88597,22.6384 -26.92257,26.63008 -4.65203,1.4244 -13.04916,1.99017 -17.53512,1.18144 z"
     style="opacity:1;fill:#ffffff;fill-opacity:1;stroke:none;stroke-width:11.63457298;stroke-linecap:round;stroke-linejoin:round;stroke-miterlimit:4;stroke-dasharray:none;stroke-dashoffset:0;stroke-opacity:1;paint-order:normal" /></g></svg>