<?xml version="1.0" encoding="UTF-8" standalone="no"?>
<svg
   xmlns:dc="http://purl.org/dc/elements/1.1/"
   xmlns:cc="http://creativecommons.org/ns#"
   xmlns:rdf="http://www.w3.org/1999/02/22-rdf-syntax-ns#"
   xmlns:svg="http://www.w3.org/2000/svg"
   xmlns="http://www.w3.org/2000/svg"
   xmlns:sodipodi="http://sodipodi.sourceforge.net/DTD/sodipodi-0.dtd"
   xmlns:inkscape="http://www.inkscape.org/namespaces/inkscape"
   height="512pt"
   viewBox="-112 0 512 512.001"
   width="512pt"
   version="1.1"
   id="svg18"
   sodipodi:docname="smartphone.svg"
   inkscape:version="0.92.4 (5da689c313, 2019-01-14)">
  <metadata
     id="metadata24">
    <rdf:RDF>
      <cc:Work
         rdf:about="">
        <dc:format>image/svg+xml</dc:format>
        <dc:type
           rdf:resource="http://purl.org/dc/dcmitype/StillImage" />
      </cc:Work>
    </rdf:RDF>
  </metadata>
  <defs
     id="defs22" />
  <sodipodi:namedview
     pagecolor="#ffffff"
     bordercolor="#666666"
     borderopacity="1"
     objecttolerance="10"
     gridtolerance="10"
     guidetolerance="10"
     inkscape:pageopacity="0"
     inkscape:pageshadow="2"
     inkscape:window-width="1920"
     inkscape:window-height="1001"
     id="namedview20"
     showgrid="false"
     inkscape:zoom="0.34570313"
     inkscape:cx="341.33333"
     inkscape:cy="341.33333"
     inkscape:window-x="-9"
     inkscape:window-y="-9"
     inkscape:window-maximized="1"
     inkscape:current-layer="svg18" />
  <path
     d="m88.539062 71.96875c-.648437 0-1.308593-.058594-1.949218-.1875-.640625-.132812-1.269532-.320312-1.878906-.570312-.601563-.25-1.179688-.5625-1.722657-.921876-.546875-.367187-1.058593-.777343-1.519531-1.238281-.460938-.472656-.878906-.980469-1.238281-1.519531-.359375-.550781-.671875-1.132812-.921875-1.730469-.25-.601562-.449219-1.230469-.570313-1.871093-.128906-.648438-.199219-1.300782-.199219-1.949219 0-.660157.070313-1.308594.199219-1.960938.121094-.640625.320313-1.269531.570313-1.871093.25-.597657.5625-1.179688.921875-1.726563.359375-.542969.777343-1.0625 1.238281-1.523437.460938-.457032.972656-.878907 1.519531-1.238282.542969-.359375 1.121094-.671875 1.722657-.921875.609374-.25 1.238281-.4375 1.878906-.566406 3.25-.652344 6.699218.40625 9.019531 2.726563.460937.460937.878906.980468 1.238281 1.523437.363282.546875.671875 1.128906.921875 1.726563.25.601562.441407 1.230468.570313 1.871093.128906.652344.199218 1.300781.199218 1.960938 0 .648437-.070312 1.300781-.199218 1.949219-.128906.640624-.320313 1.269531-.570313 1.871093-.25.597657-.558593 1.179688-.921875 1.730469-.359375.539062-.777344 1.046875-1.238281 1.519531-1.859375 1.859375-4.441406 2.917969-7.070313 2.917969zm0 0"
     id="path2"
     style="fill:#ffffff;fill-opacity:1" />
  <path
     d="m242.035156 0h-196.691406c-25 0-45.34375 20.339844-45.34375 45.34375v421.3125c0 25.003906 20.34375 45.34375 45.34375 45.34375h196.691406c25 0 45.34375-20.339844 45.34375-45.34375v-421.3125c0-25.003906-20.34375-45.34375-45.34375-45.34375zm-196.691406 20h196.691406c13.972656 0 25.34375 11.371094 25.34375 25.34375v6.632812h-131.019531c-5.523437 0-10 4.476563-10 10 0 5.519532 4.476563 10 10 10h131.019531v358.035157h-247.378906v-358.035157h26.359375c5.523437 0 10-4.480468 10-10 0-5.523437-4.476563-10-10-10h-26.359375v-6.632812c0-13.972656 11.371094-25.34375 25.34375-25.34375zm222.035156 446.65625c0 13.972656-11.371094 25.34375-25.34375 25.34375h-196.691406c-13.972656 0-25.34375-11.371094-25.34375-25.34375v-16.644531h247.378906zm0 0"
     id="path4"
     style="fill:#ffffff;fill-opacity:1" />
  <path
     d="m122.820312 225.617188h-70.570312c-5.523438 0-10-4.476563-10-10v-70.566407c0-5.523437 4.476562-10 10-10h70.570312c5.523438 0 10 4.476563 10 10v70.566407c0 5.523437-4.476562 10-10 10zm-60.570312-20h50.570312v-50.566407h-50.570312zm0 0"
     id="path6"
     style="fill:#ffffff;fill-opacity:1" />
  <path
     d="m235.128906 225.617188h-70.570312c-5.523438 0-10-4.476563-10-10v-70.566407c0-5.523437 4.476562-10 10-10h70.570312c5.523438 0 10 4.476563 10 10v70.566407c0 5.523437-4.476562 10-10 10zm-60.570312-20h50.570312v-50.566407h-50.570312zm0 0"
     id="path8"
     style="fill:#ffffff;fill-opacity:1" />
  <path
     d="m122.820312 336.925781h-70.570312c-5.523438 0-10-4.476562-10-10v-70.570312c0-5.519531 4.476562-10 10-10h70.570312c5.523438 0 10 4.480469 10 10v70.570312c0 5.523438-4.476562 10-10 10zm-60.570312-20h50.570312v-50.570312h-50.570312zm0 0"
     id="path10"
     style="fill:#ffffff;fill-opacity:1" />
  <path
     d="m235.128906 336.925781h-70.570312c-5.523438 0-10-4.476562-10-10v-70.570312c0-5.519531 4.476562-10 10-10h70.570312c5.523438 0 10 4.480469 10 10v70.570312c0 5.523438-4.476562 10-10 10zm-60.570312-20h50.570312v-50.570312h-50.570312zm0 0"
     id="path12"
     style="fill:#ffffff;fill-opacity:1" />
  <path
     d="m156.023438 481.003906h-24.667969c-5.523438 0-10-4.476562-10-10 0-5.523437 4.476562-10 10-10h24.667969c5.523437 0 10 4.476563 10 10 0 5.523438-4.476563 10-10 10zm0 0"
     id="path14"
     style="fill:#ffffff;fill-opacity:1" />
  <path
     d="m176.691406 381h-66c-5.523437 0-10-4.476562-10-10s4.476563-10 10-10h66c5.519532 0 10 4.476562 10 10s-4.480468 10-10 10zm0 0"
     id="path16"
     style="fill:#ffffff;fill-opacity:1" />
</svg>
